<mxfile host="app.diagrams.net" modified="2021-10-06T12:58:34.678Z" agent="5.0 (Windows)" etag="4eZhjdQe3xvLprg1fg0E" version="15.4.3" type="github">
  <diagram id="Tiu9mI73n6NlMXc9AmuP" name="Page-1">
    <mxGraphModel dx="868" dy="478" grid="1" gridSize="10" guides="1" tooltips="1" connect="1" arrows="1" fold="1" page="1" pageScale="1" pageWidth="850" pageHeight="1100" math="0" shadow="0">
      <root>
        <mxCell id="0" />
        <mxCell id="1" parent="0" />
      </root>
    </mxGraphModel>
  </diagram>
</mxfile>
